<!-- icon666.com - MILLIONS vector ICONS FREE --><svg viewBox="0 -56 384 384" xmlns="http://www.w3.org/2000/svg"><path d="m304 112h-16v-21.398438c0-24.082031-9.953125-47.777343-27.304688-65.015624-16.617187-16.515626-38.167968-25.585938-60.726562-25.585938-.183594 0-.367188 0-.542969 0-23.347656.152344-45.242187 9.335938-61.578125 25.769531-14.769531 14.664063-23.65625 33.6875-25.488281 54.230469h-16.359375c-52.9375 0-96 43.0625-96 96s43.0625 96 96 96h208c44.113281 0 80-35.886719 80-80s-35.886719-80-80-80zm0 128h-208c-35.289062 0-64-28.710938-64-64s28.710938-64 64-64h32c8.832031 0 16-7.167969 16-16v-8c0-14.984375 5.824219-29.023438 16.472656-39.601562 10.40625-10.476563 24.320313-16.300782 39.160156-16.398438h.335938c14.054688 0 27.597656 5.777344 38.175781 16.28125 11.351563 11.277344 17.855469 26.703125 17.855469 42.320312v37.398438c0 8.832031 7.167969 16 16 16h32c26.472656 0 48 21.527344 48 48s-21.527344 48-48 48zm0 0"></path></svg>