<?xml version="1.0" standalone="no"?>
<!DOCTYPE svg PUBLIC "-//W3C//DTD SVG 20010904//EN"
 "http://www.w3.org/TR/2001/REC-SVG-20010904/DTD/svg10.dtd">
<svg version="1.0" xmlns="http://www.w3.org/2000/svg"
 width="1280.000000pt" height="1235.000000pt" viewBox="0 0 1280.000000 1235.000000"
 preserveAspectRatio="xMidYMid meet">
<metadata>
Created by potrace 1.15, written by Peter Selinger 2001-2017
</metadata>
<g transform="translate(0.000000,1235.000000) scale(0.100000,-0.100000)"
fill="#000000" stroke="none">
<path d="M4271 12339 c-124 -24 -234 -77 -456 -219 l-39 -24 32 -7 c18 -4 91
-12 162 -19 72 -7 130 -17 130 -22 0 -4 -5 -8 -10 -8 -6 0 -51 -29 -100 -64
-141 -102 -259 -237 -421 -482 -130 -199 -181 -324 -220 -550 -18 -106 -22
-167 -22 -344 0 -118 5 -278 12 -355 12 -128 70 -486 86 -527 6 -14 2 -18 -14
-18 -67 0 -210 160 -302 339 l-29 56 5 -220 c10 -363 34 -570 100 -840 84
-348 211 -619 423 -901 219 -292 387 -413 697 -504 61 -18 143 -48 183 -67 60
-28 79 -43 103 -81 38 -60 65 -134 80 -218 l12 -67 60 64 c33 35 173 179 311
319 139 140 271 279 295 307 92 113 194 250 212 286 11 20 23 37 28 37 9 0 39
-152 50 -250 4 -38 11 -55 21 -57 17 -2 300 568 370 745 181 460 264 1048 245
1722 -14 483 -57 794 -137 994 -27 69 -45 93 -127 180 -53 56 -159 175 -236
266 -77 90 -161 188 -187 216 -27 28 -48 56 -48 62 0 7 -9 12 -20 12 -20 0
-20 -1 -4 -37 31 -70 85 -297 91 -383 l5 -85 -164 160 c-266 261 -588 485
-795 554 -113 38 -277 51 -382 30z m242 -428 c408 -175 535 -257 836 -543 95
-90 199 -187 231 -216 l59 -54 11 43 c8 27 15 38 21 32 12 -12 40 -132 97
-418 68 -336 67 -328 66 -630 -1 -230 -5 -309 -23 -445 -34 -251 -138 -759
-198 -969 -18 -65 -21 -61 -58 69 -15 52 -29 99 -32 104 -8 12 -21 -21 -22
-52 -1 -32 -64 -200 -116 -308 -24 -50 -72 -129 -106 -175 -62 -85 -196 -229
-213 -229 -14 0 1 155 23 241 24 96 87 239 134 309 20 30 75 98 123 150 101
113 167 215 199 308 25 75 41 229 26 251 -10 16 -28 13 -316 -54 -60 -14 -120
-24 -132 -23 -21 3 -21 4 7 43 45 63 165 283 204 374 73 170 124 369 146 568
16 142 8 411 -15 513 -43 193 -148 392 -289 548 -79 87 -173 169 -183 158 -5
-5 59 -139 76 -160 15 -18 208 -478 225 -535 11 -39 16 -96 16 -195 0 -138 -5
-186 -19 -186 -4 0 -38 58 -75 130 -37 71 -72 132 -78 136 -7 4 -8 -9 -4 -42
4 -27 9 -157 12 -289 10 -419 -18 -524 -204 -775 -84 -113 -130 -163 -205
-223 -72 -58 -69 -59 78 -31 34 6 38 5 29 -7 -6 -8 -32 -41 -58 -74 -54 -68
-62 -78 -94 -123 l-23 -32 63 0 c55 0 121 8 406 46 59 7 69 -5 26 -33 -39 -25
-189 -197 -246 -281 -137 -202 -198 -391 -214 -654 -4 -60 -10 -108 -13 -108
-27 0 -272 78 -363 116 -241 99 -367 173 -459 270 -174 184 -269 443 -369 998
-12 65 -19 120 -16 123 2 2 62 -7 132 -21 123 -25 184 -32 184 -21 0 4 -6 19
-14 34 -16 30 -56 182 -80 301 -28 141 -37 268 -39 547 l-2 278 43 140 c78
252 149 398 277 570 141 189 261 301 415 386 92 51 98 66 46 122 -18 20 -32
37 -29 37 2 0 45 -18 96 -39z"/>
<path d="M7865 12229 c-315 -55 -533 -149 -780 -337 -140 -107 -386 -372 -345
-372 12 0 138 76 163 98 30 26 29 6 -2 -39 -135 -201 -285 -550 -361 -844 -70
-270 -141 -602 -138 -648 l3 -51 31 50 c28 43 110 162 120 173 2 2 7 2 10 -1
3 -4 -6 -41 -19 -85 -26 -81 -84 -291 -143 -518 -65 -249 -68 -493 -9 -725 28
-112 123 -387 154 -447 12 -24 19 -43 15 -43 -3 0 -46 37 -95 81 -50 45 -93
79 -96 75 -11 -11 16 -75 89 -212 120 -224 260 -400 421 -529 146 -118 286
-189 567 -290 280 -100 942 -295 1003 -295 26 0 29 3 23 23 -3 12 -9 52 -12
89 -6 60 -4 71 19 110 34 57 106 125 253 240 227 177 450 435 617 716 117 197
290 556 342 714 49 150 52 168 30 168 -8 0 -15 -7 -15 -15 0 -8 -16 -38 -36
-66 -45 -65 -149 -207 -175 -239 l-20 -25 4 25 c2 14 25 93 50 175 76 250 124
453 157 669 22 139 30 386 24 669 -7 270 -8 287 -25 287 -15 0 -19 -8 -19 -36
0 -63 -92 -395 -151 -549 -61 -157 -97 -210 -114 -168 -4 10 -13 108 -21 218
-26 369 -63 589 -140 827 -95 295 -290 567 -579 809 -56 47 -90 82 -90 95 0
20 20 26 128 39 26 4 47 10 47 15 0 20 -182 97 -307 130 -174 46 -437 64 -578
39z m263 -428 c10 -6 7 -10 -12 -15 -52 -13 -26 -34 119 -96 80 -35 185 -89
234 -121 105 -69 235 -188 304 -279 83 -110 168 -301 237 -537 29 -100 76
-451 89 -661 14 -227 26 -252 121 -252 80 0 93 -17 92 -113 -2 -99 -33 -214
-86 -323 -45 -90 -160 -260 -219 -322 -37 -38 -31 -48 36 -61 27 -5 51 -11 54
-14 8 -9 -22 -53 -75 -109 -51 -55 -52 -55 73 -37 42 6 79 8 81 6 12 -12 -23
-115 -75 -222 -106 -215 -210 -323 -590 -609 -262 -197 -281 -210 -288 -202
-5 5 -52 219 -53 244 0 13 47 16 99 6 24 -5 31 -12 31 -30 0 -16 6 -24 18 -24
17 0 99 129 290 460 188 324 331 650 332 754 0 17 -5 18 -57 12 -32 -4 -75 -9
-96 -13 l-38 -6 22 59 c12 33 43 112 69 177 54 135 55 134 -61 97 -58 -18 -87
-19 -63 -2 42 30 89 175 105 329 14 141 7 355 -16 438 -41 154 -173 363 -316
503 -91 88 -179 154 -179 134 0 -5 7 -16 16 -23 29 -24 153 -215 198 -306 49
-97 107 -258 134 -367 12 -53 17 -113 17 -236 -1 -188 -17 -267 -82 -397 -64
-128 -216 -313 -328 -400 -73 -57 -53 -52 239 63 49 19 91 32 93 30 3 -2 -3
-13 -11 -23 -9 -10 -65 -74 -125 -143 -60 -69 -125 -141 -145 -159 -43 -42
-45 -50 -8 -44 21 4 279 81 361 109 11 3 12 -8 6 -63 -21 -207 -84 -315 -236
-403 -184 -106 -264 -156 -325 -202 -37 -27 -67 -48 -68 -46 -1 2 -28 70 -60
151 -33 81 -62 150 -66 152 -12 7 -48 -75 -70 -157 -34 -130 -43 -260 -31
-427 6 -82 16 -172 22 -201 6 -28 8 -54 5 -57 -27 -27 -860 405 -909 471 -21
29 -15 34 50 42 77 9 77 8 34 71 -144 214 -253 489 -280 713 -33 260 1 439
200 1075 28 88 58 179 66 203 9 23 13 45 10 48 -3 3 -31 1 -63 -5 -114 -21
-111 -45 -29 242 91 313 132 431 199 573 141 295 223 384 449 482 144 64 180
71 372 71 94 0 176 -3 183 -8z"/>
<path d="M10640 10006 c-164 -109 -343 -352 -495 -669 -143 -297 -225 -547
-275 -832 -22 -122 -26 -138 -34 -114 -34 105 -46 217 -54 494 l-7 230 -32
-48 c-34 -53 -131 -285 -168 -407 -93 -301 -132 -619 -122 -999 15 -552 108
-888 536 -1918 67 -160 135 -333 151 -384 32 -98 54 -242 36 -236 -13 4 -95
106 -140 173 -19 29 -39 55 -45 58 -16 10 -14 -39 2 -52 7 -6 50 -87 94 -179
l82 -168 8 -130 c9 -149 -6 -137 133 -110 105 20 212 14 349 -21 173 -44 405
-50 562 -15 65 15 183 58 254 93 122 61 375 229 375 249 0 5 23 31 51 57 57
52 188 208 266 317 150 210 324 554 438 870 87 241 196 651 194 732 0 26 -1
27 -12 9 -7 -11 -32 -42 -57 -70 -25 -28 -74 -89 -110 -135 -98 -125 -108
-137 -115 -129 -4 4 -3 27 4 52 58 230 93 806 73 1183 -18 327 -46 520 -143
1008 -48 239 -65 310 -80 328 -3 4 -21 -47 -40 -113 -19 -67 -39 -122 -44
-123 -5 -1 -19 27 -32 61 -38 107 -226 480 -304 602 -78 124 -103 181 -93 212
11 36 79 58 186 58 53 0 99 4 103 10 8 13 -30 49 -73 68 -50 21 -332 29 -457
12 -245 -33 -502 -148 -764 -340 -80 -58 -132 -90 -145 -88 -33 5 -32 78 3
248 34 163 37 200 18 200 -7 0 -41 -20 -77 -44z m886 -555 c76 -34 186 -188
263 -367 21 -49 71 -186 111 -304 81 -239 91 -263 128 -302 18 -20 32 -26 48
-22 27 7 45 -23 62 -101 47 -218 68 -839 37 -1105 -17 -148 -26 -213 -60 -425
-32 -195 -36 -342 -10 -381 15 -23 21 -26 55 -20 50 8 70 -1 70 -29 0 -42
-116 -256 -238 -441 -194 -293 -322 -433 -483 -529 -109 -64 -249 -124 -307
-131 l-47 -6 71 70 c39 39 92 104 118 145 49 78 194 407 221 502 9 30 18 55
20 55 2 0 9 -26 15 -57 20 -100 19 -99 44 -61 13 18 55 118 95 222 228 596
271 803 271 1296 0 275 -22 523 -66 733 -8 36 -20 32 -131 -44 -48 -32 -90
-59 -95 -59 -4 0 -8 31 -8 69 0 80 -31 182 -92 306 -52 104 -229 375 -246 375
-7 0 -15 7 -19 15 -6 16 -62 50 -69 42 -2 -2 16 -42 40 -88 68 -130 181 -385
211 -479 37 -117 43 -259 20 -562 -9 -130 -16 -241 -13 -248 4 -13 215 264
281 371 38 59 40 40 33 -226 -15 -573 -65 -795 -286 -1269 -22 -48 -43 -87
-44 -85 -2 2 -23 76 -45 164 -61 235 -62 236 -77 73 -14 -143 -28 -207 -95
-443 -74 -259 -88 -282 -257 -437 -192 -177 -316 -263 -421 -294 -30 -8 -64
-22 -76 -30 -22 -14 -23 -14 -29 13 -3 15 -8 66 -11 113 -23 320 -47 394 -324
994 -319 689 -351 807 -351 1281 0 178 4 238 20 314 10 51 22 96 25 99 9 10
19 -10 101 -208 42 -102 85 -203 94 -225 l18 -39 6 69 c21 223 68 556 95 669
39 164 90 271 214 446 68 95 125 160 143 160 16 0 22 -28 30 -152 9 -133 23
-141 71 -40 84 174 223 347 344 428 134 89 392 203 459 204 14 0 43 -9 66 -19z"/>
<path d="M1877 9322 c-3 -4 1 -24 8 -45 l13 -37 -87 0 c-108 0 -203 -23 -393
-93 -169 -63 -164 -65 -128 51 11 35 20 68 20 73 0 28 -146 -76 -293 -207
-168 -150 -268 -358 -293 -606 -4 -37 -10 -65 -15 -62 -4 2 -25 36 -46 74 -21
39 -40 70 -44 70 -9 0 -37 -92 -53 -175 -27 -142 -36 -246 -36 -431 0 -454 83
-889 237 -1241 47 -108 166 -309 211 -355 37 -40 13 -34 -44 10 -154 119 -384
391 -401 474 -3 16 -12 32 -20 35 -27 10 -27 18 17 -169 26 -112 26 -154 0
-168 -27 -15 -26 -67 4 -200 79 -347 259 -627 548 -851 51 -39 109 -79 130
-90 71 -36 38 -37 -94 -3 -72 19 -136 34 -140 34 -21 0 10 -22 176 -120 147
-88 171 -106 148 -108 -27 -4 -248 13 -331 25 l-44 6 7 -39 c15 -80 108 -227
210 -333 209 -218 601 -429 1053 -567 131 -40 309 -64 479 -64 l101 0 -1 188
c-1 167 1 194 21 257 48 150 172 314 279 368 78 39 184 67 258 67 36 0 66 -4
66 -9 0 -5 -36 -26 -80 -47 -43 -22 -79 -44 -80 -50 0 -13 46 -24 99 -24 55 1
112 31 178 96 101 100 156 222 193 427 30 166 44 548 31 847 -12 258 -25 365
-61 496 -26 93 -157 431 -171 439 -5 4 -9 14 -9 23 0 10 9 4 25 -18 14 -19 29
-36 33 -39 9 -7 116 -137 152 -186 14 -19 28 -34 32 -35 35 -1 35 295 0 410
-91 301 -271 626 -500 906 -282 344 -723 692 -1175 929 -134 70 -179 86 -190
67z m180 -731 c167 -35 344 -132 623 -344 188 -142 196 -150 306 -297 141
-187 198 -307 210 -440 8 -79 -3 -106 -49 -118 -30 -8 -32 -11 -35 -58 -2 -39
11 -92 62 -249 120 -374 136 -457 136 -721 0 -231 -17 -352 -90 -638 -21 -82
-25 -89 -56 -102 -17 -7 -50 -16 -72 -20 -33 -5 -43 -2 -61 17 -18 19 -21 35
-21 98 1 94 10 137 60 271 21 58 43 123 49 145 16 63 26 231 13 239 -6 3 -35
-38 -69 -99 -32 -57 -61 -105 -64 -105 -4 0 -7 71 -8 158 -5 453 -42 648 -176
930 -57 118 -204 371 -238 409 -11 13 -17 26 -14 30 4 4 79 -11 167 -32 88
-21 163 -35 166 -32 11 10 -16 74 -57 138 -54 82 -233 266 -339 345 -102 78
-232 146 -406 214 -117 46 -234 74 -234 56 0 -4 30 -21 68 -38 85 -39 344
-186 442 -251 95 -63 195 -150 232 -201 51 -70 52 -70 -158 -62 l-187 7 45
-63 c96 -135 279 -467 351 -638 129 -303 162 -537 122 -850 -16 -131 -69 -354
-91 -387 -13 -20 -13 -23 0 -23 13 0 72 15 144 36 28 8 28 -3 -2 -35 -36 -40
-93 -194 -106 -291 -21 -158 -33 -184 -139 -305 -97 -110 -201 -338 -201 -438
0 -28 -1 -29 -37 -23 -90 16 -264 70 -338 105 -74 35 -346 208 -359 229 -3 5
30 13 74 16 93 9 94 10 50 96 -46 92 -48 90 80 90 82 0 110 3 110 13 0 6 -19
18 -42 25 -84 26 -334 134 -398 172 -112 66 -270 225 -270 271 0 18 8 19 115
19 64 0 115 4 115 9 0 18 -50 69 -79 81 -17 7 -33 20 -36 29 -3 9 -31 35 -63
58 -31 24 -72 56 -91 72 -33 27 -34 29 -14 39 13 7 116 14 264 17 236 6 349
17 349 35 0 5 -9 12 -20 15 -32 10 -237 160 -317 232 -82 73 -178 185 -247
288 -118 176 -175 359 -196 635 -12 155 -13 630 -2 630 5 0 28 -13 50 -30 23
-16 43 -30 45 -30 1 0 -1 42 -6 93 -17 185 4 303 74 417 l34 55 6 -30 c4 -16
7 -52 8 -80 1 -27 4 -60 7 -73 6 -20 9 -17 29 25 52 108 168 221 250 244 118
33 373 33 532 0z"/>
<path d="M5780 7284 c-177 -26 -440 -82 -440 -94 0 -4 21 -13 48 -20 67 -18
69 -24 10 -40 -197 -49 -367 -128 -514 -238 -106 -79 -319 -289 -392 -387
-150 -201 -239 -460 -362 -1050 -23 -110 -50 -231 -61 -270 -44 -153 -98 -297
-109 -290 -4 3 -10 40 -14 82 -4 43 -11 94 -15 113 l-8 35 -8 -40 c-15 -77
-99 -223 -179 -314 -70 -78 -150 -147 -391 -335 -474 -369 -603 -506 -750
-801 -166 -334 -204 -635 -124 -975 75 -316 287 -695 481 -862 89 -76 119 -92
270 -148 178 -66 212 -83 349 -175 60 -41 114 -75 119 -75 5 0 -4 21 -20 47
-33 55 -113 193 -119 206 -2 5 12 1 30 -9 19 -9 120 -46 224 -82 177 -60 198
-64 300 -69 144 -7 166 -2 90 21 -104 31 -271 115 -284 142 -14 31 -14 54 0
54 31 0 421 -151 519 -202 135 -69 224 -133 387 -280 165 -149 270 -235 398
-327 317 -227 620 -379 829 -417 108 -20 413 -19 549 1 223 33 422 107 488
182 l33 38 -25 3 c-14 2 -59 -10 -100 -27 -91 -37 -164 -48 -344 -56 l-140 -5
175 75 c372 161 546 257 884 489 88 60 198 133 246 161 219 132 696 375 735
375 2 0 -7 -19 -21 -43 -27 -50 -75 -191 -98 -290 -9 -37 -18 -131 -21 -210
-6 -155 -10 -151 50 -58 91 142 333 317 555 400 140 53 224 74 420 105 369 60
471 90 626 186 107 65 156 115 199 201 67 132 78 195 78 444 1 167 -3 238 -15
295 -9 41 -16 76 -15 77 1 0 27 -9 57 -22 l55 -23 3 27 c2 15 -11 63 -28 106
-17 43 -30 87 -28 99 3 19 7 17 48 -19 25 -22 66 -58 93 -78 l47 -38 0 134 c0
157 -16 259 -66 423 -68 225 -145 397 -270 605 -66 110 -319 480 -475 694 -48
66 -85 122 -83 124 3 3 54 10 114 17 61 7 115 16 121 20 6 3 -15 23 -49 44
-62 39 -169 155 -227 245 -48 75 -107 213 -180 422 -168 478 -261 685 -386
855 -198 268 -530 407 -1044 438 -196 12 -208 15 -201 46 9 36 -20 38 -263 24
-119 -7 -344 -14 -501 -14 -258 -1 -288 1 -313 17 -18 11 -27 26 -27 43 0 25
9 31 134 83 21 8 26 15 18 23 -12 12 -239 73 -437 118 -270 61 -438 73 -635
44z m375 -699 c48 -9 100 -22 117 -31 27 -14 30 -19 25 -51 -13 -77 33 -126
179 -194 146 -69 174 -72 637 -66 451 5 437 7 398 -57 -12 -19 -18 -37 -14
-39 5 -3 67 14 139 38 163 54 242 66 414 65 252 -1 361 -45 549 -225 149 -142
204 -254 301 -615 53 -196 91 -313 124 -378 27 -54 25 -62 -22 -77 -49 -15
-48 -74 4 -163 63 -108 294 -403 394 -502 66 -66 196 -242 256 -348 24 -42 65
-126 90 -186 45 -106 104 -314 104 -367 0 -26 -3 -27 -67 -33 -38 -4 -89 -11
-115 -17 l-48 -11 80 -86 80 -87 -70 -3 -70 -3 6 -27 c3 -15 14 -61 24 -102
57 -231 69 -407 36 -530 -48 -184 -137 -267 -371 -350 -166 -58 -232 -69 -462
-76 -117 -4 -213 -4 -213 0 0 15 26 56 127 193 56 78 103 147 103 154 0 19
-245 4 -354 -22 -262 -61 -405 -118 -648 -255 -43 -24 -83 -44 -89 -44 -16 0
-5 271 15 362 20 90 85 227 123 259 42 36 180 102 294 141 88 30 104 32 259
36 91 2 183 -1 205 -5 l40 -9 3 -107 c2 -63 7 -107 13 -107 20 0 104 49 125
72 43 48 59 107 58 208 0 77 -5 105 -24 150 -39 90 -153 250 -179 250 -12 0
-35 29 -28 36 3 3 47 1 98 -5 51 -6 95 -8 98 -5 3 2 -67 77 -154 164 -88 88
-156 160 -152 160 4 0 24 -7 45 -16 66 -28 584 -224 593 -224 18 0 7 29 -67
178 l-76 153 -76 56 c-125 92 -226 154 -467 288 -126 70 -295 163 -375 207
-268 149 -358 215 -436 321 -60 81 -81 145 -93 280 -14 161 -16 157 72 141
127 -24 157 -27 157 -18 0 5 -20 22 -45 37 -71 45 -190 179 -226 254 -31 65
-32 69 -26 172 3 66 11 122 22 148 23 58 16 71 -22 39 -58 -49 -66 -81 -74
-291 -6 -170 -9 -194 -29 -232 -21 -41 -22 -52 -18 -215 6 -210 20 -263 108
-397 121 -184 349 -373 683 -566 65 -37 114 -71 110 -75 -4 -4 -61 -15 -125
-25 -64 -10 -122 -21 -128 -25 -11 -7 158 -229 209 -274 11 -11 21 -22 21 -26
0 -4 -44 -10 -97 -14 -54 -4 -112 -9 -130 -12 l-32 -6 47 -34 c26 -18 101 -70
166 -115 195 -132 202 -139 149 -139 -63 -1 -387 -50 -480 -74 -151 -38 -215
-62 -358 -132 -309 -152 -554 -387 -645 -619 -21 -52 -24 -77 -24 -195 -1
-158 12 -202 94 -318 46 -66 187 -204 232 -228 19 -10 10 -19 -109 -98 -150
-98 -441 -245 -594 -300 -57 -20 -169 -54 -249 -76 -80 -21 -140 -39 -134 -39
23 -2 191 -32 237 -42 36 -9 46 -14 37 -23 -7 -7 -72 -11 -198 -11 -317 1
-309 -3 -823 437 -446 382 -554 465 -772 593 -109 63 -343 178 -452 220 -112
44 -346 125 -361 125 -10 0 -14 -16 -14 -60 0 -33 -2 -60 -5 -60 -3 0 -53 22
-111 50 l-105 49 -19 -42 c-11 -23 -20 -48 -20 -54 0 -27 -44 -11 -82 29 -50
55 -105 168 -123 255 -35 167 -28 471 16 642 52 204 319 615 469 723 149 105
196 146 249 213 63 81 71 81 71 2 0 -23 5 -49 10 -57 8 -12 15 -9 40 20 49 56
120 169 161 255 42 90 136 372 264 795 99 324 133 427 183 555 118 303 228
435 455 549 147 73 257 108 467 150 94 19 174 37 178 41 3 3 1 15 -6 26 -7 11
-10 24 -7 29 9 15 152 12 250 -5z"/>
<path d="M1 3498 l-1 -3498 3143 0 c1728 0 3135 4 3127 9 -8 5 -37 12 -65 15
-66 9 -214 49 -345 93 -295 99 -746 371 -1157 700 -280 223 -369 271 -553 297
-25 4 -55 9 -67 13 -35 8 -30 -27 27 -178 27 -73 48 -135 45 -137 -2 -3 -57
16 -121 42 -65 25 -118 45 -120 43 -2 -2 -10 -70 -18 -151 -8 -82 -17 -150
-19 -153 -3 -2 -27 29 -53 69 -62 93 -197 234 -298 310 -43 32 -190 125 -325
205 -413 245 -441 264 -580 397 -253 245 -407 528 -512 947 -64 259 -84 422
-76 656 4 133 9 182 26 234 22 70 78 163 135 227 40 43 37 54 -19 68 -54 13
-304 123 -447 195 -591 300 -1030 675 -1182 1010 -64 142 -86 280 -56 344 11
22 28 34 65 47 68 22 70 43 5 97 -27 23 -50 46 -50 51 0 4 18 11 40 14 22 3
58 9 80 12 27 4 40 11 40 21 0 9 -33 50 -73 93 -144 150 -294 355 -367 499
-64 128 -107 290 -194 736 l-34 170 -1 -3497z"/>
</g>
</svg>
